<svg viewBox="0 0 321 321" fill="none" xmlns="http://www.w3.org/2000/svg">
<g clip-path="url(#clip0_111_2)">
<path d="M160.5 1C72.4106 1 1 72.4106 1 160.5C1 248.589 72.4106 320 160.5 320C248.589 320 320 248.589 320 160.5C320 72.4106 248.589 1 160.5 1Z" fill="#161616" stroke="#626262" stroke-width="2"/>
<path d="M267.15 164.194L209.542 221.802V94.7394C211.315 92.966 213.721 91.9697 216.229 91.9697C218.737 91.9697 221.143 92.966 222.917 94.7394L267.15 138.973C268.806 140.629 270.12 142.595 271.016 144.758C271.912 146.922 272.374 149.241 272.374 151.583C272.374 153.925 271.912 156.244 271.016 158.408C270.12 160.572 268.806 162.538 267.15 164.194Z" fill="#111111"/>
<path d="M196.167 73.5625H135.979C126.13 73.5625 118.146 81.5468 118.146 91.3958V211.771C118.146 221.62 126.13 229.604 135.979 229.604H196.167C206.016 229.604 214 221.62 214 211.771V91.3958C214 81.5468 206.016 73.5625 196.167 73.5625Z" fill="#111111"/>
<path d="M214.557 92.0958C218.684 92.6796 222.507 94.5922 225.449 97.5439L266.307 138.4C268.096 140.189 269.515 142.312 270.483 144.649C271.452 146.986 271.95 149.491 271.95 152.02C271.95 154.55 271.452 157.055 270.483 159.392C269.515 161.729 268.096 163.852 266.307 165.64L229.604 202.341M118.146 95.8542V91.3958C118.146 86.6661 120.025 82.1302 123.369 78.7858C126.714 75.4414 131.249 73.5625 135.979 73.5625H196.167C200.896 73.5625 205.432 75.4414 208.777 78.7858C212.121 82.1302 214 86.6661 214 91.3958V211.771C214 216.501 212.121 221.037 208.777 224.381C205.432 227.725 200.896 229.604 196.167 229.604H135.979C131.249 229.604 126.714 227.725 123.369 224.381C120.025 221.037 118.146 216.501 118.146 211.771V113.688" stroke="#543898" stroke-width="2" stroke-linecap="square"/>
<path d="M114.802 156.042C87.1025 156.042 64.6458 178.498 64.6458 206.198C64.6458 233.897 87.1025 256.354 114.802 256.354C142.502 256.354 164.958 233.897 164.958 206.198V156.042H114.802Z" fill="#111111" stroke="#543898" stroke-width="2" stroke-linecap="square"/>
<path d="M114.802 172.76C96.3351 172.76 81.3646 187.731 81.3646 206.198C81.3646 224.665 96.3351 239.635 114.802 239.635C133.269 239.635 148.24 224.665 148.24 206.198C148.24 187.731 133.269 172.76 114.802 172.76Z" fill="#897BBF"/>
<path fill-rule="evenodd" clip-rule="evenodd" d="M112.573 219.573V221.802H117.031V208.427H130.406V203.969H117.031V190.594H112.573V203.969H99.1979V208.427H112.573V219.573Z" fill="#543898"/>
<path d="M49.0417 206.198C49.0408 219.204 52.8971 231.918 60.1227 242.732C67.3483 253.546 77.6186 261.975 89.6348 266.951C97.6136 270.257 106.166 271.959 114.802 271.958" stroke="#543898" stroke-width="2" stroke-linecap="square"/>
<path d="M164.958 169.417C172.345 169.417 178.333 163.428 178.333 156.042C178.333 148.655 172.345 142.667 164.958 142.667C157.572 142.667 151.583 148.655 151.583 156.042C151.583 163.428 157.572 169.417 164.958 169.417Z" fill="#111111" stroke="#543898" stroke-width="2" stroke-linecap="square"/>
</g>
<defs>
<clipPath id="clip0_111_2">
<rect width="321" height="321" fill="white"/>
</clipPath>
</defs>
</svg>
